<?xml version="1.0" encoding="UTF-8"?>
<svg id="Ebene_1" data-name="Ebene 1" xmlns="http://www.w3.org/2000/svg" viewBox="0 0 1898.14 1034.86">
  <defs>
    <style>
      .cls-1 {
        fill: #8676c1;
      }

      .cls-2 {
        fill: #62b75f;
      }

      .cls-3 {
        fill: #f4abed;
      }

      .cls-4 {
        fill: #eaaa1b;
      }

      .cls-5 {
        fill: #f48a69;
      }

      .cls-6 {
        fill: #86d4fc;
      }

      .cls-7 {
        fill: #2b7ec1;
      }
    </style>
  </defs>
  <g id="Antartica">
    <path class="cls-6" d="M1425.61,1034.86c.51,0,1.34-.12,1.83-.26l160.56-46.93c.49-.14.48-.27-.04-.28l-130.52-2.46c-.51,0-.56-.21-.1-.43l78.26-39.13c.46-.23.44-.57-.04-.75l-70.69-26.81c-.48-.18-1.29-.31-1.8-.29l-262.9,12.4c-.51.02-1.31.23-1.77.46l-53.28,26.64c-.46.23-.62.05-.36-.39l16.54-28.36c.26-.44.05-.85-.46-.91l-68.08-7.29c-.51-.05-1.32.05-1.8.23l-70.69,26.81c-.48.18-1.09-.03-1.37-.46l-11.5-18.4c-.27-.44-.87-.6-1.33-.37l-38.3,19.15c-.46.23-1.25.47-1.76.54l-110.55,14.74c-.51.07-.92-.3-.92-.81v-25.61c0-.51-.38-.75-.84-.53l-50.77,24.18c-.46.22-1.02.78-1.23,1.25l-11.72,25.78c-.21.47-.81.87-1.32.89l-59.01,2.46c14.99,14.99-143.94,7.54-143.94,7.54-.51-.02-1.27-.29-1.69-.59l-15.97-11.4c-.42-.3-.35-.63.15-.74l68.11-14.6c.5-.11.57-.43.14-.72l-45.92-31.42c-.42-.29-1.14-.32-1.59-.07l-20.85,11.58c-.45.25-1.23.47-1.75.5l-100.54,4.9c-.51.02-.7.39-.41.82l13.95,20.93c.28.43.1.79-.42.8l-185.47,4.95c-.51.01-.59.27-.17.56l73.4,51.38c.42.29,1.18.53,1.7.53h1057.18Z"/>
  </g>
  <g id="Europe">
    <path class="cls-5" d="M735.7,153.07c-.11.5.2.81.7.68l21.5-5.38c.5-.12,1-.64,1.11-1.14l2.93-13.17c.11-.5-.21-1-.71-1.11l-9.83-2.11c-.5-.11-1.25.05-1.67.35l-10.14,7.24c-.42.3-.85.95-.96,1.45l-2.93,13.17Z"/>
    <path class="cls-5" d="M760.45,126.14c-.45-.25-.71-.87-.58-1.37l1.21-4.85c.12-.5,0-1.25-.29-1.68l-3.96-5.94c-.28-.43-.12-.63.36-.46l7.4,2.69c.48.18,1.22.07,1.64-.22l10.14-7.24c.42-.3.89-.14,1.05.34l3.57,10.72c.16.49.11,1.26-.12,1.72l-3.33,6.66c-.23.46-.11,1.12.27,1.47l20.28,18.72c.38.35.37.92,0,1.26l-7.78,7.07c-.38.35-1.1.71-1.6.81l-30.64,6.29c-.5.1-.7-.18-.44-.62l4.89-8.38c.26-.44.64-1.19.84-1.66l4.26-9.94c.2-.47.75-1.03,1.22-1.24l5.79-2.57c.47-.21.53-.65.14-.98l-8.56-7.13c-.39-.33-1.08-.81-1.53-1.06l-4.21-2.4Z"/>
    <path class="cls-5" d="M688.05,76.16c-.46.22-.58.72-.25,1.11l7.13,8.56c.33.39,1.02.73,1.53.75l18.95.76c.51.02,1.31-.15,1.77-.38l19.98-9.99c.46-.23.47-.62.02-.87l-5.86-3.26c-.45-.25-1.23-.41-1.74-.37l-25.71,2.41c-2.5-5-15.81,1.27-15.81,1.27Z"/>
    <path class="cls-5" d="M828.37,225.28c-.02.51.37.86.88.78l5.65-.94c.51-.08.99-.57,1.07-1.07l1.57-9.4c.08-.51.02-1.32-.14-1.81l-3.78-11.34c-.16-.49-.44-.49-.62,0l-3.73,10.11c-.18.48-.34,1.29-.36,1.81l-.54,11.87Z"/>
    <path class="cls-5" d="M1027.91,220.2c-.21-.47-.01-.65.44-.41l12.1,6.6c.45.25,1.13.16,1.51-.18l5.49-4.99c.38-.35,1.02-.36,1.41-.04l6.48,5.26c.4.32,1.02.29,1.38-.07l.75-.75c.36-.36.66-1.08.66-1.59v-8.33c0-.51-.41-1-.92-1.09l-.66-.11c-.51-.08-1.21-.46-1.55-.84l-14.97-16.12c-.35-.38-.72-1.1-.82-1.6l-1.51-7.54c-.1-.5-.03-.97.16-1.05s.04-.42-.33-.77l-4.96-4.7c-.37-.35-1.07-.78-1.56-.95l-19.47-6.87c-.48-.17-.58-.6-.21-.96l17.39-16.81c.37-.36.89-.29,1.17.14l5.26,8.41c.27.44.91.8,1.43.8l41.84.6c.51,0,.72-.35.46-.79l-14.67-25.24c-.26-.44-.12-1.04.3-1.34l8.45-5.81c.42-.29.73-.95.69-1.46l-1.09-12.5c-.04-.51.09-1.31.31-1.78l2.35-5.17c.21-.47.31-1.26.22-1.77l-3.41-18.77c-.09-.5.21-1.09.68-1.31l6.42-2.96c.47-.22.66-.77.43-1.23l-4.79-9.57c-.23-.46-.39-1.25-.36-1.77l.9-15.22c.03-.51-.36-.99-.87-1.07l-.82-.12c-.51-.08-1.34-.2-1.85-.27l-32.29-4.73c-.51-.07-.56.07-.11.32l11.7,6.58c.45.25.39.43-.12.41l-13.12-.73c-.51-.03-1.33.09-1.81.26l-9.9,3.54c-.48.17-.98-.09-1.1-.59l-1.21-4.85c-.12-.5-.62-.76-1.1-.59l-19.06,6.86c-.48.17-.92.73-.98,1.24l-.63,5.64c-.06.51-.47.72-.91.46l-10.04-5.74c-.45-.25-1.16-.7-1.59-.98l-8.44-5.63c-.43-.28-.57-.15-.31.29l5.74,10.04c.25.45.06.93-.43,1.08l-14.86,4.46c-.49.15-.57.54-.18.87l8.56,7.13c.39.33.31.49-.18.36l-23.17-6.18c-.5-.13-.57.01-.16.32l8.5,6.37c.41.31.33.52-.18.46l-13.96-1.47c-.51-.05-1.17-.44-1.47-.85l-9.73-13.47c-.3-.42-.13-.75.39-.74l34.77.79c.51.01.89-.4.83-.91l-.63-5.64c-.06-.51-.51-1.01-1.02-1.12l-48.96-10.43c-.5-.11-1.33-.14-1.84-.07l-64.76,8.9c-.51.07-1.12.5-1.35.96l-11.63,22.49c-.24.46-.82.98-1.3,1.16l-26.56,10.16c-.48.18-.72.73-.54,1.21l6.84,18.24c.18.48.71.7,1.18.49l14.95-6.73c.47-.21,1.08-.03,1.36.4l13.13,20.09c.28.43.89.6,1.35.38l14.13-6.69c.46-.22.88-.82.91-1.33l.69-8.96c.04-.51.46-1.09.93-1.29l12.43-5.12c.47-.2.46-.46-.04-.59l-14.01-3.69c-.5-.13-.81-.65-.69-1.15l2.08-9.01c.12-.5.6-1.06,1.08-1.24l15.74-6c.48-.18.83-.75.78-1.26l-.65-6.47c-.05-.51.33-.93.84-.93h19.78c.51,0,.6.26.19.57l-20.17,15.51c-.41.31-.54.94-.3,1.39l5.78,10.84c.24.45.85.76,1.36.69l27.29-3.9c.51-.07,1.22.16,1.58.53l5.34,5.34c.36.36.25.75-.25.87l-9.01,2.08c-.5.12-1.33.21-1.84.21h-17.28c-.51,0-.75.38-.54.84l5.87,12.47c.22.46,0,.7-.48.52l-14.07-5.18c-.48-.18-.78.09-.66.59l2.9,12.34c.12.5-.2.82-.7.71l-5.67-1.26c-.5-.11-1.04.2-1.21.68l-1.91,5.72c-.16.49-.61.61-1,.28l-4.41-3.78c-.39-.33-1.1-.46-1.59-.29l-19.06,6.86c-.48.17-1.04-.07-1.25-.54l-1.76-4.11c-.2-.47-.77-.73-1.26-.58l-9.04,2.78c-.49.15-.99-.13-1.11-.63l-3.73-15.67c-.12-.5-.61-.76-1.09-.57l-9.08,3.49c-.48.18-.7.72-.49,1.19l5.9,13.28c.21.47-.04.87-.55.89l-18.95.76c-.51.02-1.12.41-1.35.87l-4.99,9.99c-.23.46-.83.88-1.34.94l-13.13,1.46c-.51.06-.89.52-.83,1.03l.65,6.47c.05.51-.32.88-.83.83l-5.64-.63c-.51-.06-1.35-.1-1.86-.1h-8.96c-.51,0-.85.41-.75.91l1.3,6.5c.1.5-.24.89-.75.87l-14.79-.74c-.51-.03-.59.2-.17.5l10.14,7.24c.42.3,1.02.87,1.34,1.27l5.5,6.87c.32.4.43,1.12.24,1.6l-5.15,13.25c-.19.48-.76.85-1.27.83l-39.76-1.59c-.51-.02-.94.38-.95.9l-.79,37.27c-.01.51.36,1.12.81,1.35l13.32,6.66c.46.23,1.24.32,1.74.2l22.33-5.39c.5-.12,1.13-.58,1.39-1.01l14.84-24.22c.27-.44.89-.92,1.38-1.07l11.54-3.61c.49-.15.93-.7.97-1.21l.66-7.3c.05-.51.5-.93,1.02-.93h13.95c.51,0,1.33-.13,1.82-.3l15.71-5.24c.49-.16,1.22-.04,1.62.28l33.5,26.32c.4.32.73,1,.73,1.51v10.62c0,.51.23.58.52.16l5.63-8.44c.28-.43.45-1.19.36-1.7l-1.36-8.15c-.08-.51.18-.66.58-.35l6.02,4.68c.41.32.4.32,0,0l-19.25-14.81c-.45-.24-1.07-.78-1.38-1.19l-10.55-14.32c-.3-.41-.14-.82.37-.9l8.15-1.36c.51-.08,1.15.2,1.44.62l5.63,8.44c.28.43.89.96,1.35,1.19l21.64,10.82c.46.23.86.84.9,1.35l.71,10.63c.03.51.38,1.21.76,1.55l6.1,5.42c.38.34,1.11.69,1.62.77l18.14,3.02c.51.08.61-.13.23-.47l-7.78-7.07c-.38-.35-.85-1.02-1.04-1.49l-2.64-6.59c-.19-.48.02-.66.47-.41l5.86,3.26c.45.25,1.15.2,1.56-.11l5.17-3.88c.41-.31,1.17-.58,1.68-.59l20.62-.76c.51-.02.62-.32.24-.66l-6.94-6.25c-.38-.34-.55-1.02-.37-1.5l1.84-4.91c.18-.48.57-1.22.86-1.64l12.26-17.62c.29-.42.84-.48,1.21-.13l12.8,12.04c.37.35,1.09.57,1.6.48l12.32-2.17c.51-.09.62-.46.26-.82l-7.01-7.01c-.36-.36-.25-.76.25-.88l19-4.56c.5-.12.75.17.55.64l-5.12,12.43c-.2.47.02,1.06.47,1.29l17.5,9.13c.45.24,1.22.59,1.69.78l6.59,2.64c.48.19.92.76.98,1.27l.6,4.81c.06.51-.29,1.04-.78,1.17l-7.36,2.01c-.5.13-1.32.23-1.83.21l-18.95-.76c-.51-.02-1.3-.24-1.75-.48l-7.52-4.1c-.45-.25-1.24-.45-1.75-.45h-11.46c-.51,0-1.18.34-1.49.75l-3.88,5.17c-.31.41-.98.7-1.49.65l-6.47-.65c-.51-.05-1.23.2-1.59.57l-2.84,2.84c-.36.36-1.08.62-1.59.56l-13.96-1.47c-.51-.05-.8.3-.65.79l4.43,14.04c.15.49.63,1.13,1.05,1.42l16.78,11.44c.42.29,1.07.23,1.43-.13l4.51-4.51c.36-.36,1.02-.44,1.45-.17l9.23,5.68c.44.27,1.2.38,1.69.24l19.02-5.33c.49-.14,1.32-.28,1.83-.31l44.55-2.6c.51-.03.76-.44.55-.91l-6.74-15.15Z"/>
  </g>
  <g id="Africa">
    <path class="cls-2" d="M1058.36,662.47c.21.47.79.72,1.28.56l11.96-3.81c.49-.16,1.01-.68,1.17-1.17l21.92-70.03c.15-.49.18-1.3.06-1.8l-5.18-21.29c-.12-.5-.4-.53-.61-.06l-7.33,15.79c-.22.47-.73,1.09-1.15,1.39l-12.23,8.89c-.41.3-1.16.64-1.67.75l-9.42,2.09c-.5.11-1.04.6-1.21,1.09l-2.53,7.6c-.16.49-.19,1.29-.07,1.79l3.92,15.67c.12.5.04,1.28-.18,1.74l-8.55,17.68c-.22.46-.23,1.22-.02,1.69l9.84,21.41Z"/>
    <path class="cls-2" d="M958.73,272.32c-.51-.06-1.25.17-1.64.5l-4.41,3.78c-.39.33-1.11.49-1.6.35l-49.83-14.47c-.49-.14-1.04.13-1.21.62l-6.02,16.56c-.18.48-.72.74-1.2.58l-23.21-7.74c-.49-.16-.93-.71-.99-1.22l-.63-5.64c-.06-.51-.51-1.03-1.01-1.16l-30.66-7.86c-.5-.13-.59-.51-.21-.86l7.78-7.07c.38-.35.55-1.02.38-1.51l-3.54-9.9c-.17-.48-.73-.83-1.24-.77l-53.1,6.44c-.51.06-1.29.32-1.74.57l-17.53,9.91c-.45.25-1.22.36-1.72.23l-14.84-3.71c-.5-.12-1.26,0-1.7.26l-21.72,13.19c-.44.27-.91.89-1.05,1.38l-6.15,21.52c-.14.49-.65,1.05-1.13,1.23l-15.74,6c-.48.18-1.1.68-1.39,1.11l-28.11,42.57c-.28.43-.33,1.15-.1,1.61l3.33,6.66c.23.46.36,1.25.28,1.76l-6.39,43.11c-.08.51.09,1.27.37,1.71l20.63,31.74c.28.43.83,1.05,1.23,1.38l26.87,22.13c.4.33,1.14.57,1.65.53l38.1-2.38c.51-.03,1.34-.16,1.84-.29l40.65-10.36c.5-.13,1.04.17,1.21.65l4.37,12.39c.17.48.73.88,1.24.88h19.78c.51,0,.92.42.91.93l-.8,41.43c0,.51.2,1.29.46,1.73l27.35,45.85c.26.44.5,1.22.53,1.73l1.56,27.28c.03.51-.11,1.32-.31,1.79l-14.27,34.08c-.2.47-.17,1.23.06,1.69l17.47,34.14c.23.46.49,1.24.58,1.75l5.52,33.13c.08.51.32,1.31.52,1.78l17.58,40.75c.2.47.3,1.27.22,1.78l-1.36,8.15c-.08.51.22,1.12.67,1.36l9.18,4.94c.45.24,1.23.36,1.73.25l42.3-8.78c.5-.1,1.2-.5,1.55-.87l31.2-33.6c.35-.38,1.05-.74,1.56-.82l3.98-.57c.51-.07.98-.55,1.04-1.06l3.09-23.96c.07-.51.51-1.09.98-1.29l15.77-6.76c.47-.2.8-.78.72-1.29l-4.72-31.46c-.08-.51.15-1.23.51-1.6l18.69-19.47c.36-.37,1-.9,1.43-1.18l17.59-11.47c.43-.28.75-.93.72-1.44l-2.37-33.94c-.04-.51-.18-1.33-.32-1.83l-6.99-24.85c-.14-.49-.17-1.31-.08-1.81l5.48-28.97c.1-.5.45-1.23.8-1.61l21.23-23.59c.34-.38.93-.99,1.29-1.34l27.8-27.01c.37-.36.79-1.05.94-1.54l11.95-39.84c.15-.49-.15-.82-.65-.73l-39.79,7.16c-.5.09-1.27-.07-1.69-.35l-10.94-7.29c-.43-.28-.38-.66.1-.85l4.91-1.84c.48-.18.54-.58.13-.9l-23.5-18.01c-.41-.31-.91-.95-1.12-1.42l-6.73-14.95c-.21-.47-.71-1.12-1.1-1.45l-8.56-7.13c-.39-.33-.74-1.02-.76-1.53l-.74-15.62c-.02-.51-.39-1.18-.8-1.47l-10.14-7.24c-.42-.3-.76-.96-.76-1.48v-6.46c0-.51-.23-1.29-.5-1.72l-12.91-20.29c-.28-.43-.73-1.14-1-1.57l-8.4-13.19c-.28-.43-.19-.51.2-.17l13.59,12.08c.38.34.77.21.85-.3l.95-5.72c.08-.51-.02-1.3-.23-1.77l-5.3-11.81c-.21-.47-.8-.9-1.31-.96l-17.49-2.02Z"/>
  </g>
  <g id="Asia">
    <path class="cls-4" d="M1375.02,443.68c-.51.02-.66.36-.32.75l40.41,46.88c.34.39.7,1.12.82,1.62l2.08,9.01c.12.5.56,1.14.99,1.42l30.08,19.79c.43.28.79.09.81-.42l.77-23.11c.02-.51-.31-1.18-.73-1.47l-18.46-13.08c-.42-.3-.67-.95-.56-1.45l1.26-5.67c.11-.5-.16-1.13-.6-1.39l-25.88-15.68c-.44-.27-1.03-.83-1.32-1.26l-10.62-15.93c-.28-.43-.94-.76-1.45-.74l-17.29.75Z"/>
    <path class="cls-4" d="M1478.21,496.51c-.48-.18-.99-.73-1.13-1.23l-8.65-30.68c-.14-.49.08-.65.49-.34l8.5,6.37c.41.31.84.15.96-.35l2.08-9.01c.12-.5.52-1.19.9-1.54l29.43-27.05c.38-.35,1.04-.41,1.48-.13l14.24,8.99c.43.27.53.83.22,1.23l-10.51,13.51c-.32.41-.3,1.06.02,1.45l11.29,13.55c.33.39.2.85-.29,1.01l-5.72,1.91c-.49.16-.92.71-.96,1.22l-2.35,28.95c-.04.51-.48,1.03-.98,1.16l-8.18,2.05c-.5.12-1.3.08-1.78-.1l-29.06-11Z"/>
    <path class="cls-4" d="M1456.6,530.5c-.5-.1-.95-.6-.99-1.12l-.69-8.96c-.04-.51.32-.78.8-.6l24.9,9.34c.48.18.98-.08,1.1-.58l1.21-4.85c.12-.5.64-.81,1.14-.7l20.66,4.59c.5.11.57.44.15.74l-6.8,4.76c-.42.29-.35.59.16.65l39.78,4.77c.51.06,1.34.07,1.85.01l45.6-4.8c.51-.05.52-.01.01.09l-54.79,11.28c-.5.1-1.33.1-1.83,0l-72.27-14.62Z"/>
    <path class="cls-4" d="M1564.79,553.97c-.48-.19-.74-.75-.59-1.24l2.78-9.04c.15-.49.69-.98,1.19-1.09l25.65-5.44c.5-.11.54,0,.09.25l-18.34,9.94c-.45.24-.93.85-1.07,1.34l-2.01,7.36c-.14.5-.64.74-1.11.55l-6.59-2.64Z"/>
    <path class="cls-4" d="M1539.04,515.42c-.51-.05-1.08-.48-1.27-.96l-5.97-14.92c-.19-.48-.25-1.27-.13-1.77l6.23-26.49c.12-.5.63-.86,1.14-.8l25.62,3.11c.51.06,1.22-.18,1.59-.55l8.67-8.67c.36-.36.53-.26.36.23l-4.41,13.22c-.16.49-.71.9-1.23.91l-26.44.78c-.51.02-.82.43-.68.92l1.15,4.03c.14.49.67.93,1.19.97l19.79,1.52c.51.04.9.49.85,1l-2.35,28.95c-.04.51-.49.89-1,.84l-23.12-2.31Z"/>
    <path class="cls-4" d="M1539.72,272.95c.03.51-.25.64-.62.29l-13.63-12.87c-.37-.35-.45-.99-.16-1.42l8.96-13.43c.28-.43.94-.76,1.45-.74l18.12.75c.51.02,1.11-.34,1.33-.8l6.69-14.13c.22-.46.18-1.2-.08-1.64l-14.51-24.18c5-4.16-7.73-19.27-7.73-19.27-.33-.39-.2-.57.28-.41l31.54,11.04c.48.17.68.68.43,1.13l-4.1,7.52c-.25.45-.86.88-1.37.96l-8.98,1.38c-.51.08-.57.37-.15.66l13.43,8.96c.43.28.91.92,1.06,1.4l9.42,29.03c.16.49-.09,1.08-.55,1.3l-18.31,9.16c-.46.23-1.25.46-1.76.52l-20.63,2.29c-.51.06-.9.52-.87,1.03l.72,11.46Z"/>
    <path class="cls-4" d="M1535.71,178.96c-.51,0-1.2-.33-1.52-.73l-16.31-20.2c-.32-.4-.9-1.01-1.27-1.36l-19.44-17.89c-.38-.35-.31-.45.15-.22l27.46,13.34c.46.22.98.8,1.15,1.29l3.54,9.9c.17.48.63,1.15,1.02,1.49l16.07,13.77c.39.33.29.61-.22.61h-10.62Z"/>
    <path class="cls-4" d="M1502.03,309.6c-.3-.41-.61-.34-.69.17l-2.23,15.64c-.07.51.15,1.23.5,1.61l7.9,8.62c.35.38.8.3,1-.17l4.26-9.94c.2-.47.12-1.2-.19-1.61l-10.55-14.32Z"/>
    <path class="cls-4" d="M1512.99,353.89c.08-.51.56-.87,1.07-.81l11.47,1.43c.51.06,1,.53,1.09,1.03l2.17,12.32c.09.51-.06,1.27-.34,1.71l-4.83,7.58c-.28.43-.18,1.05.22,1.38l7.71,6.31c.4.32.47.92.15,1.33l-7.19,9.34c-.31.41-.75.36-.98-.1l-12.51-25.8c-.22-.46-.34-1.25-.26-1.76l2.21-13.98Z"/>
    <path class="cls-4" d="M1543.07,431.59c-.44.26-.8.06-.8-.45v-8.13c0-.51.39-1.08.87-1.26l22.4-8.5c.48-.18.9.09.93.6l1.54,23.95c.03.51-.35.86-.86.77l-12.32-2.17c-.51-.09-.89-.58-.85-1.09l.7-9.79c.04-.51-.29-.71-.73-.45l-10.89,6.53Z"/>
    <path class="cls-4" d="M1543.94,412.92c-2.5-.83-14.3-11.85-14.3-11.85-.38-.35-.42-.96-.09-1.36l10.47-12.71c.33-.4.94-.48,1.35-.18l18.46,13.08c.42.3.43.79.01,1.1l-15.91,11.93Z"/>
    <path class="cls-4" d="M1579.01,84.05c-.51,0-.59-.25-.18-.55l10.98-8.06c.41-.3,1.17-.5,1.68-.44l12.3,1.45c.51.06,1.33.23,1.82.38l23.19,6.96c.49.15.72-.11.5-.58l-4.21-9.13c-.22-.47-.81-.9-1.32-.96l-32.28-3.94c-.51-.06-1.22-.41-1.59-.77l-5.34-5.34c-.36-.36-1.08-.7-1.59-.76l-76.41-8.13c-.51-.05-.61.18-.23.52l5.26,4.6c.39.34.31.77-.16.96l-2.43.97c-.48.19-1.22.11-1.64-.17l-8.44-5.63c-.43-.28-1.2-.51-1.71-.5l-33.1.79c-.51.01-1.35-.03-1.86-.1l-58.93-8.07c-.51-.07-.92-.55-.92-1.06v-4.79c0-.51-.42-.92-.93-.91l-37.27.79c-.51.01-.93.44-.93.95v5.63c0,.51-.42.89-.93.85l-25.62-2.33c-.51-.05-.84.33-.73.83l1.26,5.67c.11.5-.19.75-.66.55l-8.27-3.45c-.47-.2-1.19-.62-1.6-.93l-13.51-10.51c-.41-.32-1.15-.61-1.67-.66l-24.79-2.32c-.51-.05-.81.32-.67.81l1.15,4.03c.14.49-.16.87-.68.85l-13.96-.73c-.51-.03-1.35-.04-1.86-.03l-48.09.8c-.51,0-.59-.23-.17-.53l15.97-11.4c.42-.3.37-.7-.1-.9l-16.59-6.79c-.47-.19-1.28-.36-1.8-.38l-32.27-.79c-.51-.01-1.26.24-1.67.55l-10.19,8.01c-.4.32-1.13.43-1.6.24l-9.08-3.49c-.48-.18-1.29-.27-1.79-.19l-23.97,3.87c-.51.08-.73.52-.5.98l2.5,4.99c.23.46,0,.85-.52.86l-23.95.77c-.51.02-.55.2-.08.42l16.62,7.55c.47.21.44.31-.07.22l-26.47-4.67c-.51-.09-1.23.11-1.62.45l-5.26,4.6c-.39.34-.41.91-.04,1.27l7.84,7.84c.36.36,1.07.72,1.58.8l19.8,3.05c.51.08.5.18,0,.23l-15.63,1.49c-.51.05-.83.5-.7.99l1.21,4.85c.12.5-.18.99-.69,1.1l-17.33,3.77c-.5.11-.59-.07-.2-.4l9.4-7.95c.39-.33.47-.95.17-1.36l-13.08-18.46c-.3-.42-.94-.87-1.44-1l-10.69-2.85c-.5-.13-1.07.15-1.27.62l-4.26,9.94c-.2.47-.02,1.09.41,1.37l13.43,8.96c.43.28.36.46-.15.38l-12.14-1.82c-.51-.08-.95.28-.98.79l-.9,15.22c-.03.51.13,1.31.36,1.77l4.79,9.57c.23.46.04,1.01-.43,1.23l-6.42,2.96c-.47.22-.77.8-.68,1.31l3.41,18.77c.09.5,0,1.3-.22,1.77l-2.35,5.17c-.21.47-.35,1.27-.31,1.78l1.09,12.5c.04.51-.27,1.17-.69,1.46l-8.45,5.81c-.42.29-.56.89-.3,1.34l14.67,25.24c.26.44.05.8-.46.79l-41.84-.6c-.51,0-1.16-.37-1.43-.8l-5.26-8.41c-.27-.44-.8-.5-1.17-.14l-17.39,16.81c-.37.36-.27.79.21.96l19.47,6.87c.48.17,1.18.6,1.56.95l4.96,4.7c.37.35,1.07.49,1.55.31l5.69-2.19c.48-.18.95-.75,1.05-1.25l.88-4.41c.1-.5.6-.91,1.12-.91h16.87c.51,0,.9.42.87.93l-.5,7.5c-.03.51-.45,1.09-.92,1.29l-8.89,3.66c-.47.2-.53.61-.12.91l13.49,10.12c.41.31.8.98.87,1.48l1.63,12.51c.07.51.52,1.06,1.01,1.22l7.6,2.53c.49.16,1.03.69,1.2,1.17l5.62,15.73c.17.48-.1.92-.61.98l-15.63,1.67c-.51.05-1.29-.12-1.72-.39l-14.65-9.01c-.44-.27-.5-.79-.13-1.15l1.61-1.61c.36-.36.33-.92-.06-1.25l-6.48-5.26c-.4-.32-1.03-.31-1.41.04l-5.49,4.99c-.38.35-1.06.43-1.51.18l-12.1-6.6c-.45-.25-.65-.06-.44.41l6.74,15.15c.21.47-.04.88-.55.91l-44.55,2.6c-.51.03-1.04.46-1.16.96l-8.7,33.99c-.13.5-.65.86-1.16.8l-.45-.05c-.51-.06-.76.28-.55.74l5.3,11.81c.21.47.45.44.54-.07l.1-.59c.08-.51.25-.51.36-.01l2.08,9.01c.12.5.47,1.24.79,1.64l26.31,32.68c.32.4.58,1.15.58,1.66v7.29c0,.51.36,1.15.79,1.42l9.23,5.68c.44.27,1.04.83,1.34,1.24l12.22,16.81c.3.41.66,1.16.79,1.65l7,25.68c.14.5.64.77,1.13.6l49.85-16.89c.49-.16.93-.72.98-1.23l.65-6.47c.05-.51.51-1.01,1.01-1.1l15.65-2.98c.5-.1,1.16-.52,1.45-.94l21.42-30.94c.29-.42.17-.97-.28-1.23l-17.53-9.91c-.45-.25-.94-.86-1.11-1.34l-4.41-13.22c-.16-.49-.56-.56-.89-.17l-11.29,13.55c-.33.39-1.01.67-1.52.61l-12.3-1.45c-.51-.06-.99-.52-1.06-1.03l-1.4-9.81c-.07-.51-.36-.57-.63-.14l-4.83,7.58c-.28.43-.73.44-1.02.01l-20.61-30.92c-.28-.43-.14-.96.32-1.19l8.32-4.16c.46-.23,1.12-.11,1.46.28l13.74,15.26c.34.38,1.02.83,1.51,1l19.88,6.88c.48.17,1.27.16,1.76-.02l11.57-4.34c.48-.18,1,.07,1.15.56l2.78,9.04c.15.49.69.92,1.2.96l53.92,4.02c.51.04,1.27.31,1.69.61l19.3,13.9c.42.3.44.82.05,1.15l-4.41,3.78c-.39.33-.33.79.13,1.02l9.99,4.99c.46.23,1.25.42,1.77.42h7.29c.51,0,.93-.42.93-.93v-5.63c0-.51.12-.53.26-.04l4.48,15.69c.14.49.46,1.26.72,1.71l20.73,36.67c.25.45.52,1.23.59,1.74l1.4,9.81c.07.51.38,1.26.68,1.68l18.06,25.13c.3.42.78.41,1.06-.02l12.29-18.43c.28-.43.45-1.19.36-1.7l-4.69-28.13c-.08-.51.22-1.11.68-1.34l11.65-5.83c.46-.23,1.06-.77,1.34-1.2l13.98-21.74c.28-.43.92-.73,1.43-.67l4.81.6c.51.06.93-.3.93-.82v-8.13c0-.51.41-1.02.91-1.12l18.16-3.78c.5-.1,1.28-.39,1.73-.64l5.75-3.61c.51-.06,1.05.3,1.21.79l4.43,14.04c.15.49.7.95,1.2,1.02l9.81,1.4c.51.07,1.01.54,1.11,1.05l1.3,6.5c.1.5.48,1.21.84,1.57l3.68,3.68c.36.36.73,1.07.81,1.58l2.21,13.98c.08.51.56.83,1.06.72l5.67-1.26c.5-.11,1.16-.54,1.46-.96l5.56-7.65c.3-.41.83-.44,1.16-.05l4.6,5.26c.34.39.67,1.12.74,1.63l1.42,10.64c.07.51.43,1.21.81,1.55l7.78,7.07c.38.35.72,1.05.76,1.56l2.36,31.44c.04.51.4,1.2.79,1.52l11.87,9.65c.4.32.94.95,1.2,1.39l12.37,20.87c.26.44.79,1.08,1.18,1.41l17.74,15.43c.39.34.52.23.3-.23l-6.69-14.13c-.22-.46-.44-1.26-.49-1.77l-1.48-14.8c-.05-.51-.47-1.11-.93-1.33l-19.13-9.18c-.46-.22-.97-.8-1.14-1.29l-4.41-13.22c-.16-.49-.71-.93-1.22-.99l-5.64-.63c-.51-.06-.91-.52-.9-1.04l.78-26.44c.02-.51.45-.93.96-.93h5.63c.51,0,.93.42.93.93v3.96c0,.51.4,1.06.89,1.21l11.54,3.61c.49.15,1.06.66,1.28,1.13l3.39,7.46c.21.47.78.98,1.27,1.14l10.72,3.57c.49.16.89.71.89,1.23v10.62c0,.51.27.61.59.21l6.31-7.71c.32-.4.97-.91,1.43-1.14l6.56-3.84c.51.05,1.15-.26,1.42-.7l5.68-9.23c.27-.44.34-1.19.15-1.66l-9.32-24.07c-.19-.48-.66-1.14-1.05-1.47l-23.54-19.62c-.39-.33-.5-.95-.23-1.39l9.84-15.9c.27-.44.91-.72,1.41-.64l8.15,1.36c.51.08,1.19.47,1.53.86l3.78,4.41c.33.39.67.29.74-.22l.57-3.98c.07-.51.53-1.05,1.02-1.21l21.54-6.92c.49-.16,1.31-.33,1.82-.38l6.47-.65c.51-.05,1.16-.44,1.45-.87l12.29-18.43c.28-.43.56-1.19.61-1.7l2.32-23.95c.05-.51-.33-.97-.84-1.01l-7.3-.66c-.51-.05-.67-.42-.36-.82l4.68-6.02c.32-.41.23-.98-.19-1.28l-10.14-7.24c-.42-.3-.99-.9-1.26-1.33l-6.48-10.09c-.28-.43-.9-.93-1.38-1.1l-7.41-2.69c-.48-.18-.79-.73-.67-1.23l1.26-5.67c.11-.5.58-1.1,1.04-1.33l9.99-4.99c.46-.23.43-.51-.07-.63l-9.01-2.08c-.5-.12-1.29-.04-1.76.18l-7.81,2.99c-.27.44-.74.45-1.03.03l-4.76-6.8c-.29-.42-.94-.87-1.44-1l-10.69-2.85c-.5-.13-.51-.39-.03-.58l9.08-3.49c.48-.18.96-.75,1.07-1.25l2.11-9.83c.11-.5.6-.8,1.1-.67l7.36,2.01c.5.14.9.67.9,1.18v12.29c0,.51.3.64.66.27l7.01-7.01c.36-.36,1.07-.55,1.56-.42l10.69,2.85c.5.13.9.66.9,1.17v7.29c0,.51.41,1.01.92,1.1l11.49,2.15c.5.09,1.16.52,1.45.94l12.26,17.62c.29.42.91.59,1.38.37l10.8-5.04c.46-.22.59-.73.29-1.14l-11.37-15.16c-.31-.41-.93-.95-1.38-1.2l-15.02-8.26c-.45-.25-.54-.76-.19-1.14l7.07-7.78c.35-.38.45-1.07.24-1.54l-4.21-9.13c-.22-.47.03-.88.54-.93l17.29-1.5c.51-.04.97-.5,1.02-1.01l3.16-33.94c.05-.51-.21-1.23-.56-1.6l-22.85-23.64c-.36-.37-1.04-.83-1.51-1.03l-12.43-5.12c-.47-.2-.91.06-.98.57l-.6,4.81c-.06.51-.51.79-1,.62l-19.88-6.88c-.48-.17-.65-.65-.36-1.08l3.96-5.94c.28-.43.59-1.19.67-1.7l3.02-18.14c.08-.51.57-.9,1.08-.87l40.6,2.39c.51.03,1.05.46,1.19.95l1.15,4.03c.14.49.66.77,1.15.62l14.04-4.43c.49-.15.49-.4,0-.55l-6.54-1.96c-.49-.15-.92-.69-.96-1.2l-.7-9.79c-.04-.51.35-.88.86-.81l10.64,1.42c.51.07,1.24.41,1.62.75l7.78,7.07c.38.35,1.03.38,1.44.08l10.98-8.06c.41-.3.72-.13.69.38l-.7,9.8c-.04.51-.28,1.29-.54,1.74l-4.89,8.38c-.26.44-.16,1.08.23,1.43l43.57,38.72c.38.34.82.22.97-.27l1.96-6.54c.15-.49.16-1.3.02-1.79l-6.16-22.35c-.14-.49-.58-1.16-.98-1.48l-23.52-18.82c-.4-.32-.31-.62.2-.66l8.13-.68c.51-.04,1.35-.06,1.86-.04l19.78.76c.51.02,1.05-.37,1.2-.86l1.96-6.54c.15-.49.67-1.01,1.17-1.15l19.02-5.32c.49-.14.5-.39.02-.56l-17.39-6.05c-.48-.17-1.3-.31-1.81-.31h-13.12Z"/>
    <path class="cls-4" d="M1653.04,487.36c-.48-.19-1.15-.03-1.49.36l-11.25,12.75c-.34.38-.85.35-1.13-.08l-9.81-15.09c-.28-.43-.93-.75-1.44-.7l-18.12,1.51c-.51.04-.69.42-.39.84l13.08,18.46c.3.42.95.85,1.45.96l28.15,6.26c.5.11,1.17.53,1.49.93l8.83,11.03c.32.4.45,1.13.29,1.61l-4.41,13.22c-.16.49.08.7.54.47l8.32-4.16c.46-.23,1.2-.21,1.65.04l10.24,5.76c.45.25.76.04.71-.47l-5.15-44.32c-.06-.51-.5-1.08-.98-1.27l-20.59-8.11Z"/>
  </g>
  <g id="Australia">
    <path class="cls-7" d="M1504.79,727.27c-.45-.25-.57-.81-.28-1.23l6.43-9.29c.29-.42.49-1.18.43-1.69l-8.12-74.74c-.06-.51.28-1.1.75-1.32l49.09-22.53c.47-.21,1.01-.78,1.21-1.25l7.61-18.26c.2-.47.7-1.1,1.13-1.39l28.44-19.75c.42-.29,1.11-.29,1.52.01l13.47,9.73c.42.3.91.16,1.1-.32l9.3-23.25c.19-.48.77-.86,1.28-.85l38.1.79c.51.01.77.41.58.88l-8.45,20.75c-.19.48,0,1.1.42,1.39l31.76,21.44c.43.29.82.1.88-.41l5.62-50.6c.06-.51.3-.56.54-.1l14.11,26.66c.24.45.85.76,1.36.68l8.98-1.38c.51-.08.99.27,1.08.78l5.51,32.3c.09.51.52,1.14.96,1.4l15.05,9.03c.44.26,1.01.84,1.26,1.29l22.39,39.18c.25.45.37,1.22.26,1.72l-10.42,47.3c-.11.5-.51,1.2-.88,1.55l-15.3,14.53c-.37.35-.84,1.03-1.05,1.5l-10.91,24.93c-.21.47-.78.96-1.27,1.1l-32.33,8.67c-.5.13-1.29.09-1.77-.1l-28.23-10.98c-.48-.19-.93-.75-1-1.26l-4.73-33.12c-.07-.51-.49-.7-.93-.44l-13.39,8.19c-.44.27-.98.11-1.21-.35l-8.32-16.65c-.23-.46-.84-.82-1.35-.8l-46.43,1.6c-.51.02-1.27.28-1.69.58l-19.3,13.9c-.42.3-1.17.48-1.68.4l-19.8-3.05c-.51-.08-1.24.14-1.62.48l-12.75,11.25c-.38.34-1.06.41-1.51.15l-15.86-9.07Z"/>
    <path class="cls-7" d="M1678.82,802.57c-.83-2.5-4.04-25.72-4.04-25.72-.07-.51.24-.71.68-.45l8.38,4.89c.44.26,1.17.27,1.62.02l15.02-8.26c.45-.25.74-.04.65.47l-3,16.48c-.09.5-.53,1.14-.96,1.4l-18.35,11.17Z"/>
    <path class="cls-7" d="M1802.01,826.24c-.44.26-1.18.29-1.64.06l-11.65-5.83c-.46-.23-.47-.62-.02-.86l44.15-24.08c.45-.25,1.08-.77,1.4-1.18l15.49-19.36c.32-.4.94-.51,1.38-.24l9.23,5.68c.44.27.51.8.16,1.17l-19.55,21.11c-.35.38-.99.9-1.44,1.16l-37.53,22.36Z"/>
    <path class="cls-7" d="M1864.68,785c-.11.5.14.65.54.34l32.67-25.49c.4-.32.33-.67-.17-.79l-15.67-3.73c-.5-.12-.89-.64-.87-1.15l.75-18.12c.02-.51-.3-1.18-.72-1.47l-15.97-11.4c-.42-.3-.65-.14-.52.36l8.68,32.33c.13.5-.08,1.17-.48,1.49l-11.87,9.65c-.4.32-.43.89-.06,1.25l5.34,5.34c.36.36.57,1.07.46,1.57l-2.11,9.83Z"/>
    <path class="cls-7" d="M1718.65,530.1c-.39-.34-.48-.98-.22-1.42l4.04-6.73c.26-.44.06-.86-.44-.92l-10.64-1.42c-.51-.07-1.05-.52-1.2-1.01l-2.78-9.04c-.15-.49-.66-1.05-1.14-1.23l-30.89-12.17c-.48-.19-.82.08-.76.58l5.15,44.32c.06.51.43,1.11.83,1.33s1.14.47,1.65.55l13.98,2.21c.51.08.89-.27.84-.78l-.68-8.13c-.04-.51.34-.95.85-.98l12.29-.72c.51-.03,1.15.3,1.42.74l9.84,15.9c.27.44.91.82,1.42.86l22.28,1.54c.51.04.62-.21.23-.55l-26.07-22.91Z"/>
  </g>
  <g id="North_America" data-name="North America">
    <path class="cls-1" d="M583.92,57.11c.49.16.5.47.04.69l-21.62,10.04c-.47.22-.74.8-.61,1.3l7.86,30.66c.13.5.63,1.05,1.11,1.22l19.06,6.86c.48.17,1.15,0,1.49-.39l26.25-30.23c.34-.39,1.03-.75,1.54-.81l27.29-3.12c.51-.06,1.26-.36,1.67-.67l12.67-9.69c.41-.31,1.16-.61,1.67-.66l46.43-4.8c.51-.05.9-.52.88-1.03l-.73-13.12c-.03-.51.3-1.16.74-1.43l20.9-13.16c.43-.27.57-.85.3-1.29l-5.68-9.23c-.27-.44-.08-.9.41-1.04l38.16-10.34c.5-.13.48-.21-.03-.17l-40.6,3.18c-.51.04-.65-.24-.3-.61l7.9-8.62c.35-.38.21-.67-.3-.64l-103.04,4.91c-.51.02-1.35.07-1.86.1l-28.11,1.56c-.51.03-1.35.1-1.86.17l-24.79,3.1c-.51.06-1.33.21-1.83.33l-30.65,7.07c-.5.12-.49.27.01.35l19.8,3.05c.51.08.53.29.05.47l-20.73,7.68c-.48.18-.46.32.06.32h43.09c.51,0,.8.4.64.89l-5.24,15.71c-.16.49.1,1.03.58,1.2l16.56,6.02c.48.18.46.3-.06.29l-22.28-.77c-.51-.02-.53.1-.05.26l13.22,4.41Z"/>
    <path class="cls-1" d="M598.04,1.79c.5-.09.5-.15-.01-.14l-105.54,3.27c-.51.02-.54.18-.06.36l18.24,6.84c.48.18.45.33-.06.33h-14.79c-.51,0-.64.3-.27.66l4.51,4.51c.36.36.29.46-.16.22l-20-10.77c-.45-.24-1.22-.32-1.71-.16l-16.54,5.26c-.49.16-.5.43-.02.62l19.91,7.66c.48.18.45.37-.06.41l-41.43,3.19c-.51.04-.56.27-.11.52l7.52,4.1c.45.25.61.81.36,1.26l-2.4,4.21c-.25.45-.04.83.47.85l38.1,1.59c.51.02,1.28-.19,1.71-.48l10.94-7.29c.43-.28.36-.52-.16-.52h-33.1c-.51,0-.51,0,0-.02l43.09-.8c.51,0,1.29-.23,1.74-.49l20.87-12.37c.44-.26,1.22-.55,1.72-.64l67.27-12.16Z"/>
    <path class="cls-1" d="M262.26,333.46c-.51.08-.55-.05-.1-.3l.28-.16c.45-.25,1.18-.65,1.63-.9l14.56-8.03c.45-.25,1.2-.29,1.68-.09l43.87,18.63c.47.2.44.43-.06.52l-16.89,2.82c-.51.08-1.28-.06-1.72-.32l-24.62-14.66c-.44-.26-1.22-.41-1.72-.32l-16.89,2.82Z"/>
    <path class="cls-1" d="M322.17,356.41c-.48.17-.47.41.03.54l13.18,3.29c.5.12,1.31.1,1.8-.05l20.08-6.31c.49-.15.54-.52.12-.81,0,0-9.22-6.34-11.1-6.34s-17.18-.59-17.18-.59c-.51-.02-.73.33-.49.78l2.85,5.23c.25.45.05.96-.43,1.13l-8.86,3.13Z"/>
    <path class="cls-1" d="M297.2,50.47c-.49.15-1.14-.06-1.44-.48l-3.9-5.36c-.3-.41-.17-.93.3-1.14l23.28-10.47c.47-.21,1.27-.34,1.78-.3l25.62,2.33c.51.05,1.31.27,1.77.49l18.93,9.18c.46.22,1.24.29,1.73.14l21.32-6.34c.49-.15.58.02.21.36l-13.61,12.48c-.38.35-.28.75.21.89l6.95,1.99c.49.14.51.41.03.61l-15.13,6.16c-.48.19-1.26.22-1.75.06l-9.47-3.16c-.49-.16-1.3-.23-1.81-.16l-31.87,4.72c-.51.08-1.23-.15-1.61-.5l-6.75-6.23c-.38-.35-.27-.68.24-.75l23.75-2.9c.51-.06.51-.18,0-.26l-18.14-2.83c-.51-.08-.56-.36-.12-.62l14.01-8.41c.44-.26.4-.36-.09-.2l-34.44,10.69Z"/>
    <path class="cls-1" d="M449.36,83.53c-.04.51.35.88.86.81l16.88-2.25c.51-.07,1.29.08,1.74.33l23.97,13.45c.45.25.61.09.36-.36l-5.34-9.61c-.25-.45-.05-.68.43-.52l11.34,3.78c.49.16,1.27.12,1.74-.08l3.91-1.74c.47-.21.68-.76.47-1.23l-4.85-10.79c-.21-.47.03-.91.54-.99l6.27-.97c.51-.08,1.19.18,1.51.58l4.44,5.42c.32.4.94.49,1.37.2l15.31-10.2c.43-.28.37-.64-.12-.79l-20.7-6.32c-.49-.15-.63-.6-.32-1.01l5.72-7.28c.32-.4.18-.87-.31-1.03l-15.09-5.03c-.49-.16-.94-.71-1.01-1.22l-1-7.52c-.07-.51-.54-.89-1.05-.85l-13.75,1.1c-.51.04-1.35.13-1.85.2l-21.26,2.87c-.51.07-1.16.47-1.44.9l-2.71,4.07c-.28.43-.9.61-1.37.4l-3.91-1.74c-.47-.21-.61-.72-.3-1.13l3.9-5.36c.3-.41.18-.55-.27-.31l-20.22,10.97c-.45.24-.4.47.11.51l24.37,1.74c.51.04,1.26.33,1.65.66l5.42,4.44c.4.32,1.14.56,1.65.51l13.13-1.09c.51-.04,1.23.22,1.59.58l12.42,12.42c.36.36.27.81-.21.99l-6.38,2.45c-.48.18-1.07-.03-1.32-.48l-2.22-3.99c-.25-.45-.82-.6-1.26-.35l-13.37,7.8c-.44.26-1.22.44-1.74.41l-16.25-1.12c-.51-.04-.96.35-1,.87l-.49,6.88Z"/>
    <path class="cls-1" d="M281.38,411.23c-.26-.44-.84-.6-1.29-.35l-15.02,8.26c-.45.25-1.1.14-1.44-.25l-12.08-13.59c-.34-.38-.51-1.1-.38-1.6l7.84-29c.13-.5-.18-.91-.69-.92l-32.27-.79c-.51-.01-.7-.37-.42-.8l23.94-35.91c.28-.43.1-.72-.41-.65l-22.3,3.08c-.51.07-1.15.48-1.43.91l-8.14,12.59c-.28.43-.93.78-1.44.78h-24.78c-.51,0-1.01-.41-1.11-.92l-3.81-19.82c-.1-.5,0-1.29.23-1.76l11.68-24.13c.22-.46.48-1.25.56-1.76l1.36-8.15c.08-.51.55-1.05,1.04-1.21l39.02-12.74c.49-.16,1.13.05,1.44.46l5.56,7.65c.3.41.82.43,1.15.04l7.13-8.56c.33-.39,1.02-.69,1.53-.65l20.62,1.53c.51.04,1.35.04,1.86,0l9.79-.7c.51-.04,1.1.32,1.31.79l2.57,5.79c.21.47.13,1.19-.17,1.61l-5.56,7.65c-.3.41-.4,1.15-.21,1.62l5.15,13.25c.19.48.59.54.9.13l9.69-12.67c.31-.41.59-1.16.62-1.67l1.56-26.45c.03-.51.42-1.14.86-1.4l41.68-24.05c.44-.26,1.08-.79,1.41-1.18l28.78-34.37c.33-.39,1.02-.75,1.53-.79l18.12-1.51c.51-.04,1.06-.48,1.22-.96l3.57-10.72c.16-.49.7-.99,1.2-1.13l35.66-9.51c.5-.13.6.05.22.4l-11.96,11.21c-.37.35-.28.51.2.34l15.71-5.24c.49-.16,1.27-.47,1.74-.68l22.44-10.06c.47-.21.45-.51-.04-.67l-21.54-6.92c-.49-.16-1.08-.66-1.32-1.11l-6.17-13.05c-.49-.15-.47-.33.04-.39l54.76-6.44c.51-.06.64.2.3.58l-16.23,17.77c-.35.38-.21.72.3.76l30.61,2.35c.51.04.77-.32.57-.79l-7.61-18.26c-.2-.47-.11-1.2.19-1.61l10.55-14.32c.3-.41.2-.97-.24-1.24l-22.56-14c-.44-.27-.75-.91-.69-1.42l2.3-21.46c.05-.51-.28-.75-.74-.52l-22.46,10.85c-.46.22-.84-.01-.84-.53v-12.29c0-.51-.41-1-.92-1.08l-29.8-4.7c-.51-.08-1.23.14-1.6.5l-14.46,13.7c-.37.35-.6,1.05-.5,1.56l2.98,15.65c.1.5-.23,1.03-.72,1.18l-24.02,6.97c-.49.14-1.13.61-1.43,1.03l-13.92,20.11c-.29.42-.66.37-.81-.12l-3.61-11.54c-.15-.49,0-1.2.35-1.58l8.73-9.45c.35-.38.23-.79-.27-.92l-20.67-5.36c-.5-.13-.99-.64-1.1-1.15l-2.11-9.83c-.11-.5-.58-.75-1.05-.54l-15.77,6.76c-.47.2-.7-.02-.5-.49l3.45-8.27c.2-.47-.04-1-.52-1.18l-7.4-2.69c-.48-.18-.5-.5-.03-.72l45.77-21.68c.46-.22,1.25-.51,1.74-.64l23.17-6.18c.5-.13.55-.47.13-.76l-8.44-5.63c-.43-.28-.36-.44.14-.34l15.65,2.98c.5.1,1.15-.17,1.43-.6l2.3-3.44c.28-.43.89-.59,1.35-.36l6.66,3.33c.46.23,1.22.24,1.68.03l16.62-7.55c.47-.21,1.08-.74,1.37-1.16l5.63-8.44c.28-.43.1-.78-.42-.78h-14.79c-.51,0-1.3.2-1.75.45l-16.68,9.1c-.45.25-.57.11-.26-.3l3.88-5.17c.31-.41.15-.82-.36-.91l-12.32-2.17c-.51-.09-.72-.53-.48-.99l6.62-12.51c.24-.45.86-.82,1.37-.82h10.62c.51,0,1.32-.17,1.79-.37l9.94-4.26c.47-.2.45-.46-.05-.57l-13.17-2.93c-.5-.11-1.26.03-1.69.3l-26.74,17.3c-.43.28-.56.86-.29,1.3l3.17,5.08c.27.44.12.99-.33,1.22l-17.5,9.13c-.45.24-1.16.18-1.57-.13l-5.17-3.88c-.41-.31-1.17-.57-1.68-.58l-36.43-.79c-.51-.01-1.18.32-1.48.73l-8.06,10.98c-.3.41-.59.33-.64-.18l-.65-6.47c-.05-.51-.51-.97-1.02-1.02l-23.95-2.32c-.51-.05-.56-.29-.11-.53l9.18-4.94c.45-.24.4-.44-.11-.44h-11.46c-.51,0-1.34-.1-1.84-.21l-12.34-2.9c-.5-.12-1.3-.06-1.78.12l-9.08,3.49c-.48.18-1.14,0-1.46-.39l-6.31-7.71c-.32-.4-.98-.58-1.47-.4l-14.07,5.18c-.48.18-1.29.37-1.8.42l-29.78,3.14c-.51.05-1.29-.12-1.73-.38l-6.73-4.04c-.44-.26-1.22-.49-1.73-.5l-36.43-.79c-.51-.01-1.33-.17-1.81-.34l-14.07-5.18c-.48-.18-1.29-.25-1.79-.15l-65.6,12.15c-.5.09-.79.57-.64,1.06l2.78,9.04c.15.49-.13,1-.63,1.13l-10.69,2.85c-.5.13-1.32.31-1.82.4l-27.34,4.53c-.48.17-.46.35.05.39l27.28,2.34c.51.04.53.22.05.39l-9.9,3.54c-.48.17-1.3.33-1.81.35l-22.28.77c-.51.02-1.23.33-1.59.69l-21.99,21.99c-.36.36-.24.68.27.7l16.45.75c.51.02.56.23.1.46L.33,133.59c-.46.23-.43.29.06.14l64-20.25c.49-.15.98-.69,1.09-1.19l1.26-5.67c.11-.5.61-1.01,1.11-1.14l28.16-7.04c.5-.12.54-.03.08.22l-20,10.77c-.45.24-.41.38.1.31l27.29-3.9c.51-.07,1.34-.09,1.85-.03l36.47,3.82c.5.13,1.29.4,1.76.6l8.27,3.45c.47.2.73.76.57,1.25l-11.08,34.03c-.16.49-.09,1.26.14,1.71l8.29,15.83c.24.45.03.93-.47,1.06l-14.01,3.69c-.5.13-1,.64-1.13,1.14l-2.05,8.18c-.12.5-.55,1.17-.95,1.5l-26.87,22.13c-.4.33-.87.98-1.06,1.46l-10.98,28.23c-.19.48-.34,1.29-.34,1.8v15.62c0,.51.38,1.11.85,1.32l9.13,4.21c.47.22.82.81.79,1.32l-1.55,24.78c-.03.51.06,1.33.2,1.83l2.82,9.86c.14.49-.16.93-.67.97l-8.96.69c-.51.04-.59.31-.17.61l12.63,8.92c.42.3.55.9.28,1.34l-4.04,6.73c-.26.44-.18,1.1.18,1.46l10.34,10.34c.36.36.82.27,1.01-.21l2.64-6.59c.19-.48,0-1.11-.41-1.41l-4.31-3.08c-.42-.3-.71-.96-.66-1.47l1.46-13.13c.06-.51-.02-1.33-.17-1.82l-2.78-9.04c-.15-.49-.5-1.25-.77-1.68l-3.17-5.08c-.27-.44-.27-1.15,0-1.59l5.68-9.23c.27-.44.91-.75,1.42-.69l5.64.63c.51.06.81.51.67,1l-4.48,15.69c-.14.49-.04,1.26.22,1.7l21.54,36.69c.26.44.36,1.21.23,1.7l-4.5,16.52c-.14.5.09,1.15.5,1.45l17.65,13.04c.41.3,1.11.77,1.55,1.03l25.04,14.87c.44.26,1.19.31,1.66.11l14.1-5.94c.47-.2,1.02.03,1.21.5l4.3,10.76c.19.48.75.98,1.25,1.11l29,7.84c.5.13,1.02.64,1.17,1.14l6.11,19.86c.15.49.56,1.2.91,1.57l11.21,11.96c.35.37,1.04.79,1.54.92l14.01,3.69c.5.13,1.23-.03,1.63-.35l11.87-9.65c.4-.32.85-.19,1,.3l3.18,10.19c.15.49.61.64,1.02.33l5.59-4.19c.41-.31.53-.92.27-1.36l-7.38-12.55Z"/>
  </g>
  <g id="South_America" data-name="South America">
    <path class="cls-3" d="M544.1,516.26c-.05-.51-.51-1-1.01-1.09l-12.32-2.17c-.51-.09-1.18-.49-1.5-.89l-8.83-11.03c-.32-.4-1-.77-1.51-.83l-29.78-3.14c-.51-.05-1.24-.38-1.61-.73l-9.45-8.73c-.38-.35-1.09-.73-1.59-.85l-12.34-2.9c-.5-.12-1.32-.29-1.83-.39l-11.49-2.15c-.5-.09-.74-.55-.53-1.02l4.21-9.13c.22-.47.15-1.19-.14-1.61l-4.76-6.8c-.29-.42-.79-1.1-1.1-1.51l-16.98-22.88c-.42-.29-1.19-.51-1.7-.49l-19.78.76c-.51.02-1.25-.24-1.63-.58l-5.26-4.6c-.39-.34-.99-.92-1.34-1.29l-26.08-27.91c-.41-.3-1.06-.27-1.45.07l-6.94,6.25c-.38.34-1.11.56-1.61.48l-18.97-3.04c-.51-.08-1.33-.24-1.83-.35l-16.5-3.75c-.5-.11-.81-.61-.68-1.11l2.05-8.18c.12-.5-.17-.75-.64-.57l-24.07,9.32c-.48.19-1.12.68-1.42,1.09l-13.9,19.3c-.3.42-.88,1.01-1.29,1.32l-5.59,4.19c-.41.31-.65.86-.54,1.23s.15,1.09.07,1.6l-4.7,29.8c-.08.51-.49,1.15-.92,1.44l-15.93,10.62c-.43.28-.96.9-1.18,1.36l-9.18,19.13c-.22.46-.12,1.15.22,1.53l6.24,6.94c.34.38.23.84-.25,1.03l-9.08,3.49c-.48.18-.85.75-.82,1.27l.73,13.12c.03.51.4,1.16.83,1.45l5.94,3.96c.43.28.94.9,1.15,1.37l25.06,57.4c.21.47.71,1.11,1.11,1.42l30.99,23.84c.41.31.79.99.84,1.5l2.29,20.63c.06.51.04,1.34-.03,1.85l-9.72,67.26c-.07.51-.03,1.33.1,1.83l4.52,17.34c.13.5.13,1.31,0,1.8l-8.68,32.33c-.13.5-.18,1.32-.11,1.82l6.39,43.11c.08.51.3.53.49.06l6.79-16.59c.19-.47.36-.44.38.07l.78,29.77c.01.51-.35,1.12-.81,1.35l-4.99,2.5c-.46.23-.75.83-.65,1.33l7.96,39.8c.1.5.47,1.22.81,1.6l26.21,28.6c.35.38,1.05.7,1.56.71l41.43.8c.51,0,.6-.24.2-.56l-25.17-19.67c-.4-.32-.93-.95-1.17-1.4l-6.62-12.51c-.24-.45-.26-1.21-.05-1.68l7.17-14.87c-.03-.51.25-1.21.63-1.56l7.78-7.07c.38-.35.33-.85-.1-1.12l-15.9-9.84c-.44-.27-.58-.85-.32-1.3l13.55-22.42c.07-.51-.03-1.31-.23-1.78l-7.61-18.26c-.2-.47.04-.72.52-.55l17.39,6.05c.48.17.86-.11.83-.63l-.74-14.79c-.03-.51.37-1,.87-1.09l23.14-3.86c.51-.08,1.07-.54,1.26-1.02l5.15-13.25c.19-.48.07-1.19-.27-1.58l-12.95-15.23c-.33-.39-.19-.68.33-.65l23.95,1.55c.51.03,1.17-.29,1.45-.71l33.09-49.24c.29-.43.51-1.19.49-1.71l-.77-22.28c-.02-.51.36-1.08.84-1.26l38.22-14.33c.48-.18,1.08-.69,1.33-1.14l17.4-30.85c.25-.45.5-1.23.55-1.74l3.97-38.94c.05-.51.48-.77.96-.58l6.59,2.64c.48.19,1.02-.05,1.2-.52l7.66-19.91c.18-.48.57-1.22.86-1.64l11.44-16.78c.29-.42.48-1.19.43-1.7l-1.48-14.8Z"/>
  </g>
</svg>