<?xml version="1.0" encoding="UTF-8"?>
<svg id="Ebene_1" xmlns="http://www.w3.org/2000/svg" version="1.1" viewBox="0 0 1107.7 360.3">
  <!-- Generator: Adobe Illustrator 29.2.1, SVG Export Plug-In . SVG Version: 2.1.0 Build 116)  -->
  <defs>
    <style>
      .st0 {
        fill: #1a759f;
      }

      .st1 {
        font-family: AlbertSans-Light, 'Albert Sans';
        font-size: 45.8px;
        font-weight: 300;
      }

      .st2 {
        fill: #386641;
      }
    </style>
  </defs>
  <text class="st1" transform="translate(597.2 1159.7)"><tspan x="0" y="0">Dein interaktiver Tieratlas</tspan><tspan x="0" y="54.9">mit wilden Tieren rund um den Globus</tspan></text>
  <g>
    <path class="st2" d="M213.8,284.1c-6.5,2.3-7.9,2.5-10.2,2-2.5-.8-6.2-6.5-9.6-14.7l-.8-2.3c-13.3-29.4-31.1-59.9-47.5-87.6-3.1,5.1-5.6,10.2-8.5,15.3-9.6,18.4-33.9,60.4-37.6,65-1.1,1.7-3.1,5.4-4.5,8.2-3.1,7.3-3.7,7.6-13.6,5.1-9.9-2.8-22-7.3-24.9-9.9-2-1.4-2-2.3-2-8.8.3-4,.3-18.1.3-31.4s.3-35.6.8-50c.3-14.4.6-30.5,0-35.9-.6-5.4-.8-18.4-.8-29.1.3-10.5,0-22,0-25.7s.3-7.1.6-7.9c.3-.8,4.2-1.4,14.1-2.3,18.1-1.4,32.2.3,33.6,4,.8,1.7.8,6.5-.6,19.8-.6,4.8-1.1,12.7-1.1,17.5,0,8.2-1.1,46.9-1.7,54.8l-.3,3.7,2.8-5.1c2.5-5.1,5.1-10.2,22.9-50.3,5.6-12.1,8.8-17.8,10.5-18.6,2.3-1.1,11.3-1.7,17.5-.8,3.1,1.1,5.6,6.5,7.1,9,10.2,18.9,17.5,39.3,28,59,3.4,5.9,6.5,15,6.5,3.4,0-17.8.8-33.9,1.7-51.4.8-13.6-.3-32.5,1.1-44.6,7.3-1.4,15-.6,22.6.3,6.5.3,25.1-3.1,29.4,1.1.6,1.1-1.7,50.6-2,54.8-.8,33.9-1.7,67.5-2.8,101.1-.6,18.6-.8,35.6-.8,37.3-.3,2-.8,3.7-1.7,4.2-.8.3-2.5,1.4-4,2.5-1.1,1.1-6.5,3.1-11.6,4.5-5.4,1.4-11,3.1-13,3.7Z"/>
    <path class="st2" d="M307.3,140.6c-.8,15.8-1.4,51.1-1.4,78.2s-.3,49.7-1.1,50.3c-1.7,1.7-39.3,4.5-41.5,3.1-2-1.4-2.5-16.7-2.5-74.8s.8-98.3,2-105.6c.3-2.3,1.1-4.8,1.7-5.1,1.4-1.1,13.8-2.8,28.2-3.7,12.7-.8,12.7-.6,13.8,11.9.3,5.4,1.1,11.3,1.4,13.3.3,2,0,16.7-.6,32.5Z"/>
    <path class="st2" d="M406.4,237.5l1.7,2.3c1.7,2.3,2,4.2,2,13.8s-1.4,27.7-2.8,30.5c-1.1,1.7-2.3,2-13.6,1.7-6.8,0-18.6-.6-26.3-.8-7.6-.3-21.2-.8-30.2-.8s-16.7-.3-17.8-1.4c-2.3-2.5-3.1-31.1-1.1-52.8.8-9.9,2.3-34.5,3.4-54.5,1.1-19.8,3.1-47.2,4.8-60.4,1.4-13,2.5-28.5,2.5-33.9s.6-10.7,1.1-11c.6-.6,4.2-.6,8.8,0,4.2.3,13.6.8,20.9.8,11,0,13,.3,15,2l2.3,1.7-1.7,18.6c-.8,10.2-2.3,19.8-3.1,21.5-2,4.2-4,26.5-6.8,75.1-1.4,23.4-2.5,43.8-2.8,44.9-.3,2,.3,2.3,5.6,2.8,3.4.3,13.3.3,22,.3l16.1-.3Z"/>
    <path class="st2" d="M554.4,113.5c15.8,27.7,18.9,55.6,9.3,82.5-4.5,12.7-16.9,30.2-29.1,40.7-15.3,13.6-37,28-59.3,39.5-14.7,7.3-20.1,9.3-32.5,10.5-12.4,1.1-15,1.1-17.8,0-2.3-.8-4.2-5.6-5.9-15.8-1.4-8.2-2-24.3-.8-27.1.3-1.4-.8-28.5-2.8-60.4-2.8-44.3-3.4-61.3-2.8-70.6.3-6.8.6-17.8.8-24.9,0-15.3.8-17.5,6.8-18.9,4.8-1.4,41.8-.8,60.7.8,35.6,3.1,57.6,16.4,73.4,43.8ZM523.3,172.2c1.4-7.1.3-21.7-2-28.2-2.5-7.1-6.5-14.1-11-19.2-6.8-7.9-20.9-12.1-40.7-12.1h-11.3v14.4c-.3,8.5.8,33.6,2.3,58.5l2.8,44.1,9.3-4.8c5.1-2.5,13-7.3,17.8-10.7,19.5-13.8,29.7-26.5,32.8-41.8Z"/>
    <path class="st0" d="M771,88.6c.6,4.5,1.4,32.5,1.7,62.4.6,39.8,1.1,57.6,2.3,66.9,2.3,16.9,2.5,57.3.6,59.3s-6.2,1.4-18.9,2c-15.5.6-17.8.3-18.9-.8-.8-1.1-1.7-7.3-2.3-19.8-.6-10.2-2.3-29.4-3.4-42.9-1.4-13.6-2.5-28.5-2.5-33.6s-.3-8.5-1.1-7.1c-2.5,4.2-14.1,32.5-20.3,49.1-9.3,24.9-20.9,54.5-22.9,57.3-.6.8-4.5,1.4-13.8,1.7l-13.6.3-1.4-3.1c-.8-1.7-3.4-8.8-5.9-15.5s-6.2-15.8-8.2-20.3c-2-4.2-7.1-15-11-23.7-3.7-8.5-7.6-16.9-8.8-18.6l-1.7-3.4-.6,4.2c-.3,2.3-1.1,12.4-1.7,22.6-.6,10.2-1.7,22.9-2.3,28-.8,5.1-1.7,13.8-2,19.5-.6,5.4-1.1,10.5-1.7,11-1.1,1.1-15.8,1.4-30.2.3-4.2-.3-8.2-.8-8.8-1.4-1.1-.6-1.4-3.7-.8-15.3.3-7.6,1.1-18.9,1.4-24.6.6-5.6,1.7-25.1,2.5-43.2.8-17.8,2.8-42.6,4-55.1,1.4-12.4,2.8-29.7,3.7-38.1.6-8.8,1.1-17.2,1.7-18.9l.6-3.4,19.2.3c10.5,0,19.5.6,20.1,1.1,2,2,9.6,20.9,15.8,40.1,7.3,22.9,27.4,70.6,29.1,68.9.3-.6,4-8.2,8.2-17.2,4.2-9.3,14.7-30.5,23.2-47.5,8.5-16.9,17.2-34.7,19.5-39.8,2.5-5.1,5.1-9.3,5.9-9.6.8-.3,7.3-.8,14.7-1.1,7.3-.3,15.8-.6,18.9-.8,7.6-.8,8.8.3,9.9,9.9Z"/>
    <path class="st0" d="M912.2,260.1c.6,2.5.8,6.2.8,8.5-.3,2,0,6.8.6,10.2.6,5.4.3,7.1-.6,7.6-1.1,1.1-33,5.9-37.8,5.9s-2-.8-2.8-2c-2.3-3.4-5.4-17.5-5.4-23.7s-4.5-37.8-5.4-38.7c-.3-.3-26,3.4-29.9,4.2l-2.3.3.6,20.3c.3,17.5.3,20.3-1.1,22-2.3,2.3-19.5,5.4-31.1,5.4s-11.6,3.4-11-42.4c.8-77.4,2.8-123.1,5.6-136.1,2.5-10.7,2.8-11,28.8-13.6,18.6-2,27.4-3.1,40.4-5.4,4.2-.6,11.3-1.1,15.8-1.1,7.1.3,8.5.6,9.3,2,1.1,2.3,5.1,26,6.2,36.7,2,20.1,3.7,35.6,5.9,50.3,1.4,9,3.1,21.7,4,28.5,1.7,14.7,7.9,54.2,9.3,61ZM856.9,191.7c.3-.3-.3-4.8-1.1-10.5-2.3-14.7-5.4-44.1-5.4-48.3s-1.1-5.1-9.6-4.2c-4.8.6-6.5,1.1-7.6,2.8-1.1,1.4-1.4,9.3-2,33-.3,17.2-.3,31.4,0,31.4s6.2-1.1,13-2c6.8-1.1,12.7-2.3,12.7-2.3Z"/>
    <path class="st0" d="M962.8,244c0,6.8-.6,13.8-.8,15.8-.6,2-.6,5.9,0,9q1.7,8.2-19.8,8.8c-17.5.6-18.1.3-19.2-1.7-3.7-5.4-4.5-47.2-2-109,.8-20.6,1.4-47.2,1.4-59s.3-22,1.1-23.2c1.4-1.4,8.5-3.4,20.9-5.9,17.8-3.4,55.4.6,73.4,7.9,16.9,7.1,29.9,20.3,33.6,35,7.1,26.8-12.7,58.5-47.2,76-7.3,3.7-26.8,10.5-34.5,11.9l-5.9,1.1-.6,10.5c-.3,5.6-.6,16.1-.6,22.9ZM965.9,161.8c-.3,3.1-.3,5.6,0,5.6,0,0,3.7-1.4,8.2-3.1,13.8-5.4,25.7-13.3,30.5-20.6l2.5-3.7-1.7-5.6c-1.4-5.1-2-5.6-6.8-7.9-5.9-2.8-20.3-4.8-26.3-4l-4.5.6-.6,16.7c-.6,9-.8,18.9-1.4,22Z"/>
  </g>
</svg>